<svg width="16" height="13" viewBox="0 0 16 13" fill="none" xmlns="http://www.w3.org/2000/svg">
<path fill-rule="evenodd" clip-rule="evenodd" d="M9.99002 0.761012C9.84945 0.620182 9.6587 0.540959 9.45972 0.540772C9.26075 0.540584 9.06985 0.619447 8.92902 0.760012C8.78819 0.900577 8.70896 1.09133 8.70877 1.29031C8.70859 1.48928 8.78745 1.68018 8.92802 1.82101L12.856 5.75001H1.33401C1.1351 5.75001 0.944337 5.82903 0.803685 5.96968C0.663033 6.11033 0.584015 6.3011 0.584015 6.50001C0.584015 6.69892 0.663033 6.88969 0.803685 7.03034C0.944337 7.17099 1.1351 7.25001 1.33401 7.25001H12.856L8.92802 11.178C8.78719 11.3188 8.70807 11.5098 8.70807 11.709C8.70807 11.9082 8.78719 12.0992 8.92802 12.24C9.06885 12.3808 9.25985 12.46 9.45901 12.46C9.65818 12.46 9.84918 12.3808 9.99002 12.24L15.198 7.03101C15.3385 6.89039 15.4174 6.69976 15.4174 6.50101C15.4174 6.30226 15.3385 6.11164 15.198 5.97101L9.98902 0.760012L9.99002 0.761012Z" fill="#1D1E1F"/>
</svg>
