<svg width="99" height="29" viewBox="0 0 99 29" fill="none" xmlns="http://www.w3.org/2000/svg">
<rect x="1.5" y="2" width="25" height="25" rx="8.5" stroke="#333333" stroke-width="3"/>
<rect x="7.5" y="14" width="13" height="13" rx="6.5" stroke="#333333" stroke-width="3"/>
<path d="M39.3626 17.396L36.7166 17.36C36.7166 18.17 36.9506 18.89 37.4006 19.538C37.8326 20.186 38.4446 20.708 39.2366 21.068C40.0286 21.428 40.9286 21.608 41.9366 21.608C42.8726 21.608 43.7006 21.446 44.4566 21.086C45.2126 20.744 45.7886 20.276 46.2206 19.664C46.6346 19.052 46.8506 18.368 46.8506 17.594C46.8506 16.802 46.6706 16.172 46.3106 15.704C45.9506 15.236 45.5006 14.876 44.9246 14.642C44.3486 14.408 43.6286 14.21 42.8006 14.048C41.9726 13.904 41.3606 13.76 40.9646 13.652C40.5686 13.544 40.2626 13.382 40.0466 13.202C39.8306 13.022 39.7226 12.752 39.7226 12.41C39.7226 11.942 39.9026 11.582 40.2626 11.33C40.6226 11.078 41.0906 10.952 41.7026 10.952C42.3506 10.952 42.8726 11.132 43.2686 11.456C43.6646 11.78 43.8806 12.212 43.9526 12.752H46.5986C46.5806 11.996 46.3646 11.33 45.9326 10.718C45.5006 10.124 44.9246 9.656 44.1866 9.314C43.4486 8.972 42.6206 8.792 41.7026 8.792C40.8026 8.792 39.9926 8.972 39.2726 9.296C38.5526 9.62 37.9946 10.07 37.5986 10.646C37.2026 11.222 37.0046 11.888 37.0046 12.608C37.0046 13.418 37.1666 14.066 37.5266 14.552C37.8866 15.038 38.3366 15.398 38.9126 15.65C39.4706 15.902 40.1726 16.1 41.0006 16.244C41.8286 16.424 42.4586 16.568 42.8546 16.676C43.2506 16.784 43.5746 16.946 43.7906 17.144C44.0066 17.342 44.1326 17.612 44.1326 17.936C44.1326 18.422 43.9166 18.8 43.5206 19.07C43.1246 19.34 42.6026 19.466 41.9726 19.466C41.1986 19.466 40.5866 19.286 40.1186 18.908C39.6506 18.53 39.3986 18.026 39.3626 17.396ZM47.2852 12.248L50.3092 21.5H53.0092L54.6652 15.92L56.2852 21.5H58.9852L62.0272 12.248H59.4352L57.5452 18.782L55.8532 12.248H53.5672L51.8212 18.764L49.9672 12.248H47.2852ZM71.6013 19.358H71.3133C71.0973 19.358 70.9533 19.322 70.8633 19.232C70.7553 19.16 70.7193 18.998 70.7193 18.764V15.506C70.7193 14.426 70.3593 13.58 69.6393 13.004C68.9193 12.428 67.9113 12.14 66.6153 12.14C65.3553 12.14 64.3653 12.41 63.6093 12.932C62.8533 13.454 62.4213 14.192 62.3493 15.128H64.7973C64.8513 14.786 65.0313 14.516 65.3373 14.3C65.6253 14.102 66.0213 13.994 66.4893 13.994C67.0113 13.994 67.4253 14.12 67.7493 14.372C68.0553 14.624 68.2173 14.948 68.2173 15.362V15.812H66.3813C64.9953 15.812 63.9333 16.082 63.2133 16.622C62.4933 17.162 62.1333 17.918 62.1333 18.89C62.1333 19.754 62.4393 20.438 63.0693 20.906C63.6993 21.374 64.5273 21.608 65.5713 21.608C66.2553 21.608 66.8493 21.482 67.3533 21.194C67.8393 20.924 68.2533 20.528 68.5953 19.988C68.5593 20.996 69.1353 21.5 70.3053 21.5H71.6013V19.358ZM68.2173 17.504V17.684C68.1993 18.332 68.0013 18.836 67.6233 19.214C67.2273 19.592 66.7053 19.772 66.0573 19.772C65.6253 19.772 65.3013 19.682 65.0493 19.484C64.7973 19.304 64.6893 19.034 64.6893 18.71C64.6893 18.332 64.8333 18.044 65.1213 17.828C65.4093 17.612 65.8233 17.504 66.3633 17.504H68.2173ZM73.1772 14.39V18.854C73.1772 20.618 74.0592 21.5 75.8232 21.5H77.9292V19.358H76.6152C76.2912 19.358 76.0572 19.286 75.9132 19.142C75.7692 18.998 75.7152 18.764 75.7152 18.44V14.39H77.8212V12.248H75.7152V9.656H73.1772V12.248H71.6472V14.39H73.1772ZM86.3106 20.654C87.1026 20.006 87.5706 19.124 87.7506 17.99H85.1406C85.0326 18.476 84.8166 18.854 84.4926 19.124C84.1686 19.412 83.7546 19.538 83.2686 19.538C82.6026 19.538 82.0806 19.304 81.6846 18.8C81.2886 18.314 81.0906 17.666 81.0906 16.874C81.0906 16.082 81.2886 15.452 81.6846 14.948C82.0806 14.462 82.6026 14.21 83.2686 14.21C83.7366 14.21 84.1506 14.354 84.4746 14.624C84.7986 14.894 85.0146 15.254 85.1226 15.704H87.7506C87.5706 14.588 87.0846 13.724 86.3106 13.094C85.5186 12.464 84.5106 12.14 83.2866 12.14C82.3146 12.14 81.4686 12.338 80.7486 12.734C80.0286 13.13 79.4706 13.67 79.0746 14.39C78.6786 15.11 78.4986 15.938 78.4986 16.874C78.4986 17.81 78.6786 18.638 79.0746 19.358C79.4706 20.078 80.0286 20.636 80.7486 21.032C81.4686 21.428 82.2966 21.608 83.2686 21.608C84.5106 21.608 85.5186 21.302 86.3106 20.654ZM97.0802 13.148C96.3782 12.482 95.4782 12.14 94.3982 12.14C93.2462 12.14 92.3462 12.554 91.6622 13.382V8.9H89.1242V21.5H91.6622V16.748C91.6622 15.956 91.8422 15.344 92.2022 14.894C92.5622 14.462 93.0842 14.228 93.7322 14.228C94.3442 14.228 94.8122 14.444 95.1362 14.84C95.4422 15.236 95.6042 15.83 95.6042 16.586V21.5H98.1422V16.478C98.1422 14.93 97.7822 13.832 97.0802 13.148Z" fill="black"/>
</svg>
