<svg width="158" height="159" viewBox="0 0 158 159" fill="none" xmlns="http://www.w3.org/2000/svg">
<path d="M72.478 158.488H85.498L82.026 95.992L103.292 155.016L115.01 150.242L88.102 93.388L130.2 140.26L139.314 130.712L92.876 89.048L149.296 115.956L154.504 103.804L95.046 82.972L157.976 86.01V72.99L95.046 76.462L154.504 55.196L149.296 43.478L92.876 70.386L139.314 28.288L130.2 19.174L88.102 65.612L115.01 9.19195L103.292 3.98396L82.026 63.008L85.498 0.511963H72.478L75.516 63.442L54.684 3.98396L42.532 9.19195L69.44 65.612L27.776 19.174L18.228 28.288L65.1 70.386L8.246 43.478L3.472 55.196L62.496 76.462L0 72.99V86.01L62.496 82.972L3.472 103.804L8.246 115.956L65.1 89.048L18.228 130.712L27.776 140.26L69.44 93.388L42.532 150.242L54.684 155.016L75.516 95.992L72.478 158.488Z" fill="#212529"/>
</svg>
