<svg width="16" height="13" viewBox="0 0 16 13" fill="none" xmlns="http://www.w3.org/2000/svg">
<path fill-rule="evenodd" clip-rule="evenodd" d="M9.99 0.761012C9.84943 0.620182 9.65868 0.540959 9.45971 0.540772C9.26073 0.540584 9.06983 0.619447 8.929 0.760012C8.78817 0.900577 8.70895 1.09133 8.70876 1.29031C8.70857 1.48928 8.78744 1.68018 8.928 1.82101L12.856 5.75001H1.334C1.13509 5.75001 0.944322 5.82903 0.80367 5.96968C0.663017 6.11033 0.584 6.3011 0.584 6.50001C0.584 6.69892 0.663017 6.88969 0.80367 7.03034C0.944322 7.17099 1.13509 7.25001 1.334 7.25001H12.856L8.928 11.178C8.78717 11.3188 8.70805 11.5098 8.70805 11.709C8.70805 11.9082 8.78717 12.0992 8.928 12.24C9.06883 12.3808 9.25984 12.46 9.459 12.46C9.65816 12.46 9.84917 12.3808 9.99 12.24L15.198 7.03101C15.3385 6.89039 15.4173 6.69976 15.4173 6.50101C15.4173 6.30226 15.3385 6.11164 15.198 5.97101L9.989 0.760012L9.99 0.761012Z" fill="white"/>
</svg>
